<svg xmlns="http://www.w3.org/2000/svg" viewBox="0 0 1867 2463"><defs><style>.cls-1{fill:#00aa94;}.cls-1,.cls-2{opacity:0.3;}.cls-2{fill:#754c24;}.cls-3{fill:#4b15ff;}.cls-10,.cls-3,.cls-5,.cls-7{opacity:0.5;}.cls-4{font-size:113.08px;}.cls-4,.cls-6,.cls-8,.cls-9{font-family:NanumGothic, Nanum Gothic;}.cls-5{fill:#d6fd97;}.cls-6{font-size:106.93px;}.cls-7{fill:#b315ff;}.cls-8{font-size:72px;}.cls-9{font-size:57.34px;}.cls-10{fill:#ff1f97;}</style></defs><title>자산 1</title><g id="레이어_2" data-name="레이어 2"><g id="레이어_1-2" data-name="레이어 1"><rect class="cls-1" x="-104.41" y="532.3" width="2075.08" height="1398.39" rx="656.97" ry="656.97" transform="translate(-298.37 2164.62) rotate(-90)"/><rect class="cls-2" x="-298" y="298" width="2463" height="1867" rx="803.61" ry="803.61" transform="translate(-298 2165) rotate(-90)"/><rect class="cls-3" x="772.54" y="306.13" width="322.33" height="589.43" rx="21.66" ry="21.66" transform="translate(332.86 1534.55) rotate(-90)"/><rect class="cls-3" x="807.21" y="1730.79" width="253" height="589.43" rx="19.19" ry="19.19" transform="translate(-1091.79 2959.2) rotate(-90)"/><text class="cls-4" transform="translate(784.13 643.26) scale(0.98 1)">공연장</text><rect class="cls-5" x="1232.35" y="1126.35" width="1034.3" height="235" rx="24.5" ry="24.5" transform="translate(505.65 2993.35) rotate(-90)"/><text class="cls-6" transform="translate(1709.13 1015.34) scale(0.88 1)">출<tspan x="0" y="128.32">발</tspan><tspan x="0" y="256.64">드</tspan><tspan x="0" y="384.95">림</tspan><tspan x="0" y="513.27">팀</tspan></text><rect class="cls-7" x="404.85" y="694.84" width="116.3" height="398" rx="10.69" ry="10.69" transform="translate(-430.81 1356.91) rotate(-90)"/><rect class="cls-7" x="1350.85" y="694.84" width="116.3" height="398" rx="10.69" ry="10.69" transform="translate(515.26 2302.91) rotate(-90)"/><rect class="cls-7" x="1039.85" y="793.85" width="116.3" height="200" rx="7.58" ry="7.58" transform="translate(204.19 1991.89) rotate(-90)"/><rect class="cls-7" x="715.85" y="793.85" width="116.3" height="200" rx="7.58" ry="7.58" transform="translate(-119.82 1667.89) rotate(-90)"/><text class="cls-8" transform="translate(365.13 920.26) scale(0.98 1)">오락실</text><text class="cls-9" transform="translate(698.13 916.53) scale(0.99 1)">본부석</text><rect class="cls-7" x="348.72" y="1041.73" width="170.55" height="103.98" rx="6.62" ry="6.62" transform="translate(-659.73 1527.72) rotate(-90)"/><rect class="cls-7" x="460.72" y="1041.73" width="170.55" height="103.98" rx="6.62" ry="6.62" transform="translate(-547.73 1639.72) rotate(-90)"/><rect class="cls-7" x="740.72" y="1136.73" width="170.55" height="103.98" rx="6.62" ry="6.62" transform="translate(-362.73 2014.72) rotate(-90)"/><rect class="cls-7" x="851.72" y="1136.73" width="170.55" height="103.98" rx="6.62" ry="6.62" transform="translate(-251.73 2125.72) rotate(-90)"/><rect class="cls-7" x="851.72" y="1316.73" width="170.55" height="103.98" rx="6.62" ry="6.62" transform="translate(-431.73 2305.72) rotate(-90)"/><rect class="cls-7" x="740.72" y="1316.73" width="170.55" height="103.98" rx="6.62" ry="6.62" transform="translate(-542.73 2194.72) rotate(-90)"/><rect class="cls-7" x="851.72" y="1496.73" width="170.55" height="103.98" rx="6.62" ry="6.62" transform="translate(-611.73 2485.72) rotate(-90)"/><rect class="cls-7" x="740.72" y="1496.73" width="170.55" height="103.98" rx="6.62" ry="6.62" transform="translate(-722.73 2374.72) rotate(-90)"/><rect class="cls-7" x="851.72" y="1676.73" width="170.55" height="103.98" rx="6.62" ry="6.62" transform="translate(-791.73 2665.72) rotate(-90)"/><rect class="cls-7" x="740.72" y="1676.73" width="170.55" height="103.98" rx="6.62" ry="6.62" transform="translate(-902.73 2554.72) rotate(-90)"/><rect class="cls-7" x="460.72" y="1221.73" width="170.55" height="103.98" rx="6.62" ry="6.62" transform="translate(-727.73 1819.72) rotate(-90)"/><rect class="cls-7" x="460.72" y="1401.73" width="170.55" height="103.98" rx="6.62" ry="6.62" transform="translate(-907.73 1999.72) rotate(-90)"/><rect class="cls-7" x="460.72" y="1581.73" width="170.55" height="103.98" rx="6.62" ry="6.62" transform="translate(-1087.73 2179.72) rotate(-90)"/><rect class="cls-7" x="460.72" y="1761.73" width="170.55" height="103.98" rx="6.62" ry="6.62" transform="translate(-1267.73 2359.72) rotate(-90)"/><rect class="cls-7" x="348.72" y="1221.73" width="170.55" height="103.98" rx="6.62" ry="6.62" transform="translate(-839.73 1707.72) rotate(-90)"/><rect class="cls-7" x="348.72" y="1401.73" width="170.55" height="103.98" rx="6.62" ry="6.62" transform="translate(-1019.73 1887.72) rotate(-90)"/><rect class="cls-7" x="348.72" y="1581.73" width="170.55" height="103.98" rx="6.62" ry="6.62" transform="translate(-1199.73 2067.72) rotate(-90)"/><rect class="cls-7" x="348.72" y="1761.73" width="170.55" height="103.98" rx="6.62" ry="6.62" transform="translate(-1379.73 2247.72) rotate(-90)"/><rect class="cls-7" x="1146.72" y="1015.73" width="170.55" height="103.98" rx="6.62" ry="6.62" transform="translate(164.27 2299.72) rotate(-90)"/><rect class="cls-7" x="1146.72" y="1195.73" width="170.55" height="103.98" rx="6.62" ry="6.62" transform="translate(-15.73 2479.72) rotate(-90)"/><rect class="cls-7" x="1258.72" y="1015.73" width="170.55" height="103.98" rx="6.62" ry="6.62" transform="translate(276.27 2411.72) rotate(-90)"/><rect class="cls-7" x="1258.72" y="1195.73" width="170.55" height="103.98" rx="6.62" ry="6.62" transform="translate(96.27 2591.72) rotate(-90)"/><rect class="cls-7" x="1258.72" y="1375.73" width="170.55" height="103.98" rx="6.62" ry="6.62" transform="translate(-83.73 2771.72) rotate(-90)"/><rect class="cls-7" x="1258.72" y="1555.73" width="170.55" height="103.98" rx="6.62" ry="6.62" transform="translate(-263.73 2951.72) rotate(-90)"/><rect class="cls-7" x="1258.72" y="1735.73" width="170.55" height="103.98" rx="6.62" ry="6.62" transform="translate(-443.73 3131.72) rotate(-90)"/><rect class="cls-7" x="1476.72" y="1015.73" width="170.55" height="103.98" rx="6.62" ry="6.62" transform="translate(494.27 2629.72) rotate(-90)"/><rect class="cls-7" x="1476.72" y="1195.73" width="170.55" height="103.98" rx="6.62" ry="6.62" transform="translate(314.27 2809.72) rotate(-90)"/><rect class="cls-7" x="1476.72" y="1375.73" width="170.55" height="103.98" rx="6.62" ry="6.62" transform="translate(134.27 2989.72) rotate(-90)"/><rect class="cls-7" x="1476.72" y="1555.73" width="170.55" height="103.98" rx="6.62" ry="6.62" transform="translate(-45.73 3169.72) rotate(-90)"/><rect class="cls-7" x="1476.72" y="1735.73" width="170.55" height="103.98" rx="6.62" ry="6.62" transform="translate(-225.73 3349.72) rotate(-90)"/><rect class="cls-7" x="1665.5" y="1740.5" width="104" height="162.99" rx="6.47" ry="6.47" transform="translate(-104.46 3539.54) rotate(-90)"/><rect class="cls-7" x="1146.72" y="1375.73" width="170.55" height="103.98" rx="6.62" ry="6.62" transform="translate(-195.73 2659.72) rotate(-90)"/><rect class="cls-7" x="1146.72" y="1555.73" width="170.55" height="103.98" rx="6.62" ry="6.62" transform="translate(-375.73 2839.72) rotate(-90)"/><rect class="cls-7" x="1146.72" y="1735.73" width="170.55" height="103.98" rx="6.62" ry="6.62" transform="translate(-555.73 3019.72) rotate(-90)"/><rect class="cls-7" x="858.49" y="2210.56" width="155" height="324.01" rx="11.14" ry="11.14" transform="translate(-1436.55 3308.62) rotate(-90)"/><rect class="cls-7" x="1231.97" y="2208.07" width="155" height="192.99" rx="8.6" ry="8.6" transform="translate(-408.22 4323.3) rotate(-110)"/><rect class="cls-10" x="9.84" y="1264.84" width="217.32" height="217" rx="10.79" ry="10.79" transform="translate(-1254.84 1491.84) rotate(-90)"/><rect class="cls-10" x="9.84" y="1500.84" width="217.32" height="217" rx="10.79" ry="10.79" transform="translate(-1490.84 1727.84) rotate(-90)"/><rect class="cls-10" x="54.84" y="1776.84" width="217.32" height="217" rx="10.79" ry="10.79" transform="translate(-1552.22 2683.8) rotate(-110)"/><rect class="cls-10" x="9.84" y="1028.84" width="217.32" height="217" rx="10.79" ry="10.79" transform="translate(-1018.84 1255.84) rotate(-90)"/><rect class="cls-7" x="1445.97" y="2066.07" width="155" height="192.99" rx="8.6" ry="8.6" transform="translate(1071.6 4769) rotate(-135)"/></g></g></svg>